<svg xmlns="http://www.w3.org/2000/svg" width="6571" height="2000" viewBox="0 0 6571 2000" version="1.1"><path d="M 554.656 12.975 C 546.999 15.421, 540.587 19.788, 529 30.449 C 510.470 47.497, 500.771 52.801, 486.412 53.735 C 471.102 54.732, 459.156 51.327, 430.917 37.920 C 402.675 24.512, 390.757 21.149, 375.881 22.390 C 348.011 24.714, 328.696 42.114, 312.508 79.480 C 308.454 88.838, 280.498 167.375, 261.421 223 C 256.799 236.475, 248.193 259.537, 242.296 274.250 L 231.574 301 226.037 301.013 C 218.556 301.030, 188.384 303.624, 173 305.573 C 112.596 313.225, 69.595 329.342, 43.535 354.097 C 33.328 363.792, 27.656 371.506, 21.850 383.587 C 5.656 417.279, 7.851 456.816, 28.189 497.776 C 79.176 600.467, 248.297 712.392, 453.681 779.369 C 602.576 827.924, 754.322 845.460, 873.970 827.938 C 1004.749 808.785, 1083.268 747.048, 1097.552 652.140 C 1099.722 637.721, 1099.720 614.178, 1097.548 602.005 C 1085.370 533.760, 1023.942 467.188, 934.531 425.337 L 923.500 420.173 920.740 408.837 C 919.222 402.601, 906.255 346.650, 891.924 284.500 C 877.593 222.350, 864.560 167.575, 862.962 162.777 C 854.100 136.175, 838.636 119.835, 803.180 99.611 C 746.466 67.262, 627.099 20.834, 579.119 12.462 C 568.178 10.553, 561.818 10.687, 554.656 12.975" stroke="none" fill="#eb0404" fill-rule="evenodd"/><path d="M 2324 204.407 L 2277.500 214.594 2277.242 274.076 L 2276.984 333.558 2268.242 329.332 C 2258.110 324.435, 2241.764 318.832, 2231 316.567 C 2203.156 310.708, 2169.378 312.774, 2141.762 322.026 C 2086.420 340.568, 2046.307 385.907, 2033.850 444 C 2031.897 453.106, 2031.595 457.488, 2031.578 477 C 2031.560 496.739, 2031.837 500.789, 2033.839 510 C 2037.186 525.406, 2041.235 536.883, 2048.480 551.500 C 2070.059 595.036, 2110.748 626.120, 2160.686 637.221 C 2169.044 639.079, 2173.689 639.410, 2192 639.451 C 2215.324 639.504, 2225.273 638.067, 2241.419 632.311 C 2250.064 629.229, 2266.449 621.163, 2272.445 617.038 C 2274.873 615.367, 2277.117 614, 2277.430 614 C 2277.744 614, 2278 618.950, 2278 625 L 2278 636 2326.500 636 L 2375 636 2375 415 L 2375 194 2372.750 194.110 C 2371.512 194.170, 2349.575 198.803, 2324 204.407 M 1300 425.500 L 1300 636 1352 636 L 1404 636 1404 559.488 L 1404 482.977 1443.096 483.238 L 1482.192 483.500 1521.556 559.500 L 1560.920 635.500 1618.960 635.758 C 1650.882 635.900, 1677 635.816, 1677 635.572 C 1677 635.328, 1656.271 597.477, 1630.937 551.461 C 1605.602 505.444, 1585.014 467.677, 1585.187 467.534 C 1585.359 467.391, 1588.555 465.832, 1592.288 464.068 C 1609.341 456.012, 1628.946 439.505, 1639.918 423.961 C 1649.977 409.713, 1657.774 391.700, 1661.646 373.768 C 1664.093 362.438, 1664.117 335.987, 1661.691 323.818 C 1651.461 272.488, 1615.032 234.892, 1561.620 220.542 C 1541.003 215.002, 1540.945 215, 1415.622 215 L 1300 215 1300 425.500 M 2520 425.500 L 2520 636 2572 636 L 2624 636 2624 553.500 L 2624 471 2710 471 L 2796 471 2796 553.500 L 2796 636 2848 636 L 2900 636 2900 425.500 L 2900 215 2848 215 L 2796 215 2796 295.500 L 2796 376 2710 376 L 2624 376 2624 295.500 L 2624 215 2572 215 L 2520 215 2520 425.500 M 3368 225.351 L 3321.500 235.519 3321.239 276.259 L 3320.978 317 3288.989 317 L 3257 317 3257 358 L 3257 399 3289 399 L 3321 399 3321.003 473.250 C 3321.006 551.746, 3321.339 558.976, 3325.651 574 C 3334.060 603.304, 3352.811 622.405, 3382.964 632.387 C 3400.735 638.270, 3409.431 639.430, 3435.500 639.401 C 3459.879 639.373, 3473.721 637.869, 3495.250 632.910 L 3505 630.664 3505 590.725 C 3505 553.097, 3504.899 550.825, 3503.250 551.463 C 3491.719 555.923, 3464.890 558.799, 3450.568 557.110 C 3438.585 555.696, 3432.278 553.110, 3427.090 547.482 C 3419.431 539.173, 3419.601 540.935, 3419.234 465.750 L 3418.908 399 3463.454 399 L 3508 399 3508 358 L 3508 317 3463.500 317 L 3419 317 3419 266 L 3419 215 3416.750 215.091 C 3415.512 215.142, 3393.575 219.758, 3368 225.351 M 1404 351.008 L 1404 398.105 1461.250 397.765 C 1523.803 397.394, 1522.051 397.549, 1534.446 391.272 C 1551.375 382.699, 1561.492 362.155, 1558.109 343.221 C 1554.964 325.621, 1544.433 313.421, 1526.723 306.860 C 1520.530 304.565, 1520.220 304.553, 1462.250 304.232 L 1404 303.910 1404 351.008 M 3077.500 312.132 C 3045.397 313.485, 3011.971 320.387, 2978.155 332.644 C 2967.712 336.430, 2945.109 345.631, 2944.230 346.454 C 2943.675 346.974, 2979.026 418.492, 2979.748 418.311 C 2980.162 418.207, 2987.475 415.426, 2996 412.131 C 3033.762 397.535, 3060.711 392.061, 3085.173 394.019 C 3103.082 395.452, 3114.324 399.481, 3122.962 407.561 C 3132.152 416.158, 3135.977 427.609, 3135.992 446.577 L 3136 455.654 3126.243 453.460 C 3108.105 449.384, 3094.045 447.780, 3071.834 447.255 C 3033.995 446.360, 3008.510 450.641, 2984.381 461.944 C 2972.853 467.344, 2964.632 473.154, 2956 481.999 C 2945.405 492.856, 2939.691 503.085, 2935.263 519.121 C 2932.693 528.429, 2932.764 556.723, 2935.382 566.416 C 2947.009 609.463, 2983.759 636.937, 3035.025 640.908 C 3047.397 641.867, 3071.117 640.661, 3082.737 638.484 C 3099.234 635.393, 3114.755 629.658, 3128.301 621.649 L 3136 617.098 3136 626.549 L 3136 636 3184.545 636 L 3233.089 636 3232.724 524.750 C 3232.369 416.496, 3232.303 413.244, 3230.279 404 C 3224.978 379.792, 3216.647 363.693, 3201.512 348.410 C 3174.689 321.326, 3134.982 309.710, 3077.500 312.132 M 1820 312.695 C 1804.120 314.396, 1782.142 320.569, 1767.509 327.440 C 1718.965 350.233, 1685.273 394.408, 1675.356 448.264 C 1672.983 461.153, 1672.915 492.113, 1675.233 504.500 C 1684.630 554.722, 1713.763 595.104, 1758.500 619.916 C 1775.145 629.148, 1794.026 635.642, 1816 639.694 C 1829.478 642.179, 1866.087 642.152, 1881.500 639.645 C 1902.987 636.150, 1918.792 631.170, 1936.475 622.323 C 1953.439 613.836, 1979.272 596.149, 1978.721 593.399 C 1978.599 592.793, 1964.174 579.577, 1946.664 564.030 L 1914.827 535.763 1911.164 539.238 C 1902.563 547.397, 1890.319 553.703, 1876.209 557.240 C 1863.298 560.477, 1838.809 560.458, 1827.568 557.203 C 1806.292 551.042, 1787.025 535.898, 1777.506 517.854 C 1775.578 514.198, 1774 510.936, 1774 510.604 C 1774 510.272, 1824.910 510, 1887.133 510 L 2000.266 510 1999.719 486.250 C 1999.163 462.103, 1997.933 451.415, 1993.883 435.547 C 1976.335 366.779, 1925.125 320.794, 1857.459 313.043 C 1848.997 312.073, 1827.654 311.875, 1820 312.695 M 1821.500 393.642 C 1812.309 395.583, 1799.803 401.728, 1793.237 407.528 C 1786.355 413.608, 1779.555 423.245, 1775.397 432.809 L 1772.053 440.500 1837.186 440.757 C 1873.009 440.899, 1902.546 440.787, 1902.824 440.509 C 1903.822 439.511, 1895.021 423.377, 1890.286 417.524 C 1873.696 397.017, 1847.908 388.063, 1821.500 393.642 M 2197.814 397.008 C 2168.520 401.667, 2146.431 417.279, 2134.863 441.500 C 2128.733 454.334, 2127.491 460.373, 2127.560 477 C 2127.617 490.720, 2127.800 492.026, 2130.947 501.282 C 2140.417 529.128, 2162.951 548.471, 2193.018 554.564 C 2204.514 556.893, 2227.351 556.126, 2238 553.053 C 2248.480 550.030, 2260.402 544.069, 2269.372 537.369 L 2277 531.672 2277 476.003 L 2277 420.334 2269.750 415.084 C 2253.683 403.448, 2235.313 397.214, 2215 396.505 C 2208.675 396.284, 2200.941 396.510, 2197.814 397.008 M 3053.831 510.953 C 3040.207 513.457, 3032.125 517.122, 3025.793 523.668 C 3016.434 533.342, 3016.893 548.994, 3026.825 558.916 C 3032.118 564.203, 3037.574 567.121, 3047 569.707 C 3055.234 571.966, 3081.942 572.205, 3092.500 570.113 C 3102.069 568.218, 3115.587 563.742, 3122.915 560.043 L 3129 556.971 3129 537.024 L 3129 517.077 3125.250 516.073 C 3123.188 515.521, 3115.875 514.125, 3109 512.972 C 3095.217 510.660, 3062.033 509.445, 3053.831 510.953 M 2497 829.612 C 2486.275 832.021, 2473.338 834.931, 2468.250 836.078 L 2459 838.164 2459 1046.582 L 2459 1255 2488.470 1255 L 2517.940 1255 2518.220 1242.506 L 2518.500 1230.012 2524.500 1234.064 C 2557.279 1256.206, 2600.789 1264.569, 2640.830 1256.424 C 2716.851 1240.960, 2768.985 1170.372, 2762.964 1091.057 C 2757.550 1019.720, 2709.882 964.708, 2640.565 949.797 C 2626.875 946.853, 2596.018 946.589, 2582.661 949.302 C 2563.331 953.229, 2544.906 961.124, 2528.250 972.618 L 2519 979.001 2519 902 C 2519 841.005, 2518.740 825.024, 2517.750 825.115 C 2517.063 825.179, 2507.725 827.202, 2497 829.612 M 2854 830.469 C 2841.075 833.387, 2827.912 836.307, 2824.750 836.958 L 2819 838.142 2819 1046.571 L 2819 1255 2849 1255 L 2879 1255 2879 1040 C 2879 921.750, 2878.662 825.037, 2878.250 825.082 C 2877.838 825.127, 2866.925 827.551, 2854 830.469 M 2350.024 830.540 C 2326.662 837.089, 2315.763 862.766, 2327.221 884.264 C 2336.494 901.661, 2358.635 908.603, 2376.877 899.833 C 2383.967 896.424, 2392.242 887.598, 2395.008 880.493 C 2398.246 872.175, 2398.246 860.828, 2395.008 852.500 C 2391.761 844.150, 2382.729 835.158, 2374.501 832.083 C 2366.692 829.166, 2357.087 828.560, 2350.024 830.540 M 5815 830.521 C 5803.791 833.615, 5794.220 842.491, 5789.988 853.718 C 5788.202 858.456, 5787.880 861.035, 5788.207 868 C 5788.697 878.429, 5791.765 885.818, 5798.333 892.385 C 5817.125 911.178, 5848.444 905.490, 5859.820 881.218 C 5862.105 876.344, 5862.500 874.172, 5862.500 866.500 C 5862.500 858.506, 5862.154 856.774, 5859.405 851 C 5851.432 834.251, 5832.732 825.627, 5815 830.521 M 1434.172 845.250 C 1396.052 936.938, 1265.630 1251.987, 1265.264 1253.264 C 1264.788 1254.927, 1266.626 1255.013, 1297.480 1254.764 L 1330.201 1254.500 1354.402 1194 L 1378.602 1133.500 1471.534 1133.500 L 1564.467 1133.500 1588.476 1194.250 L 1612.485 1255 1646.756 1255 L 1681.027 1255 1679.699 1251.750 C 1678.968 1249.963, 1640.641 1156.138, 1594.526 1043.250 L 1510.683 838 1473.935 838 L 1437.187 838 1434.172 845.250 M 3465.500 1045.608 C 3418.200 1159.794, 3379.350 1253.620, 3379.167 1254.109 C 3378.976 1254.619, 3392.876 1254.994, 3411.667 1254.986 L 3444.500 1254.973 3468.849 1193.986 L 3493.197 1133 3585.937 1133 L 3678.677 1133 3702.705 1193.750 L 3726.732 1254.500 3760.866 1254.763 C 3779.640 1254.908, 3794.987 1254.683, 3794.970 1254.263 C 3794.954 1253.843, 3756.781 1160.125, 3710.141 1046 L 3625.341 838.500 3588.421 838.248 L 3551.500 837.997 3465.500 1045.608 M 4224.691 867.012 C 4209.397 870.762, 4196.234 874.080, 4195.441 874.384 C 4194.221 874.853, 4194 880.838, 4194 913.469 L 4194 952 4162 952 L 4130 952 4130 977 L 4130 1002 4162 1002 L 4194 1002 4194.062 1077.750 C 4194.132 1163.873, 4195.006 1196.453, 4197.489 1205.500 C 4198.395 1208.800, 4200.964 1215.325, 4203.197 1220 C 4206.486 1226.885, 4208.824 1230.051, 4215.500 1236.665 C 4222.245 1243.347, 4225.444 1245.652, 4233.121 1249.359 C 4252.252 1258.597, 4275.988 1261.862, 4302.789 1258.942 C 4313.539 1257.771, 4328.678 1254.894, 4336.750 1252.488 L 4342 1250.923 4342 1225.845 L 4342 1200.767 4339.750 1201.278 C 4338.512 1201.558, 4333.955 1202.732, 4329.622 1203.886 C 4314.508 1207.910, 4288.839 1208.540, 4277.472 1205.166 C 4264.421 1201.292, 4257.198 1192.350, 4255.036 1177.392 C 4254.438 1173.256, 4254.032 1136.812, 4254.020 1086.250 L 4254 1002 4298.500 1002 L 4343 1002 4343 976.500 L 4343 951 4298.500 951 L 4254 951 4254 905.500 C 4254 880.475, 4253.663 860.043, 4253.250 860.096 C 4252.837 860.149, 4239.986 863.261, 4224.691 867.012 M 5632.837 866.949 C 5617.622 870.672, 5604.460 873.993, 5603.587 874.328 C 5602.176 874.870, 5602 879.202, 5602 913.469 L 5602 952 5570 952 L 5538 952 5538 977 L 5538 1002 5570 1002 L 5602 1002 5602 1092.776 C 5602 1148.405, 5602.396 1186.833, 5603.022 1192.026 C 5607.738 1231.123, 5631.832 1253.663, 5674.500 1258.891 C 5695.163 1261.424, 5723.412 1258.849, 5744.750 1252.488 L 5750 1250.923 5750 1225.845 L 5750 1200.767 5747.750 1201.278 C 5746.512 1201.558, 5741.951 1202.733, 5737.612 1203.888 C 5720.899 1208.339, 5695.689 1208.587, 5683.423 1204.422 C 5673.946 1201.205, 5668.024 1195.326, 5664.363 1185.500 C 5662.605 1180.782, 5662.484 1175.464, 5662.219 1091.250 L 5661.938 1002 5706.486 1002 L 5751.034 1002 5750.767 976.750 L 5750.500 951.500 5706.250 951.240 L 5662 950.979 5662 905.490 C 5662 880.470, 5661.663 860.040, 5661.250 860.089 C 5660.837 860.138, 5648.052 863.225, 5632.837 866.949 M 1435.746 990.273 C 1416.081 1039.802, 1400.147 1080.480, 1400.336 1080.669 C 1400.525 1080.858, 1432.869 1080.898, 1472.210 1080.757 L 1543.740 1080.500 1508.113 990.826 C 1488.518 941.506, 1472.264 900.943, 1471.993 900.687 C 1471.722 900.430, 1455.411 940.744, 1435.746 990.273 M 3556.520 974.556 C 3540.135 1015.775, 3523.904 1056.588, 3520.452 1065.250 L 3514.176 1081 3586.088 1081 C 3625.640 1081, 3658 1080.775, 3658 1080.500 C 3658 1080.225, 3642.207 1040.288, 3622.905 991.750 C 3603.602 943.213, 3587.472 902.625, 3587.061 901.556 C 3586.516 900.140, 3578.210 919.993, 3556.520 974.556 M 1846.500 946.690 C 1844.850 946.904, 1838.775 948.239, 1833 949.655 C 1814.376 954.223, 1797.982 962.550, 1783.250 974.924 L 1776 981.014 1776 966.507 L 1776 952 1746 952 L 1716 952 1716 1103.500 L 1716 1255 1746 1255 L 1776 1255 1776 1145.884 L 1776 1036.768 1779.488 1032.017 C 1784.783 1024.803, 1796.016 1014.674, 1803.943 1009.964 C 1818.846 1001.111, 1835.062 997.380, 1854.500 998.331 C 1890.340 1000.086, 1912.874 1017.557, 1922.311 1050.907 C 1924.432 1058.405, 1924.463 1059.727, 1924.767 1156.750 L 1925.074 1255 1955.037 1255 L 1985 1255 1985 1154.572 C 1985 1089.049, 1984.630 1051.426, 1983.934 1046.322 C 1976.712 993.317, 1940.784 955.947, 1888.966 947.543 C 1880.270 946.133, 1854.731 945.620, 1846.500 946.690 M 4498.500 947.398 C 4463.993 953.061, 4436.662 967.113, 4411.937 991.904 C 4393.545 1010.346, 4381.965 1028.906, 4374.132 1052.500 C 4363.609 1084.195, 4363.600 1120.174, 4374.106 1152.324 C 4382.543 1178.142, 4398.982 1203.240, 4418.956 1220.797 C 4461.530 1258.220, 4519.119 1270.326, 4572.106 1252.991 C 4597.531 1244.674, 4615.847 1233.344, 4635.015 1214.079 C 4659.243 1189.727, 4673.385 1162.410, 4679.110 1128.903 C 4680.928 1118.262, 4681.152 1113.943, 4680.688 1098.500 C 4680.306 1085.757, 4679.550 1077.792, 4678.101 1071.230 C 4671.248 1040.186, 4657.036 1014.082, 4634.977 992.023 C 4612.742 969.788, 4586.598 955.620, 4555.340 948.865 C 4542.891 946.175, 4510.972 945.351, 4498.500 947.398 M 4859.500 947.531 C 4837.854 951.547, 4818.980 960.528, 4802.250 974.773 L 4797 979.243 4797 965.621 L 4797 952 4767 952 L 4737 952 4737 1103.500 L 4737 1255 4767 1255 L 4797 1255 4797 1144.567 L 4797 1034.134 4802.370 1027.437 C 4812.418 1014.907, 4828.135 1004.684, 4844 1000.360 C 4852.998 997.907, 4875.880 997.865, 4885 1000.284 C 4903.281 1005.132, 4917.437 1016.659, 4925.318 1033.112 C 4933.976 1051.188, 4933.382 1042.819, 4933.974 1155 L 4934.500 1254.500 4964.250 1254.765 L 4994 1255.030 4994 1154.674 C 4994 1087.092, 4993.639 1051.639, 4992.896 1046.115 C 4991.817 1038.100, 4991.851 1037.824, 4994.362 1034.029 C 4998.696 1027.480, 5009.145 1016.955, 5016.309 1011.921 C 5030.422 1002.006, 5047.987 997.260, 5066.500 998.361 C 5098.727 1000.278, 5119.313 1017.112, 5128.311 1048.907 C 5130.434 1056.408, 5130.464 1057.697, 5130.767 1155.750 L 5131.073 1255 5161.037 1255 L 5191 1255 5191 1154.378 C 5191 1043.535, 5190.941 1042.270, 5184.821 1023.033 C 5171.276 980.458, 5138.092 952.894, 5093.156 946.894 C 5082.261 945.439, 5056.840 946.327, 5048 948.472 C 5020.973 955.030, 4998.502 968.352, 4981.688 987.783 C 4978.491 991.477, 4975.477 994.500, 4974.990 994.500 C 4974.504 994.500, 4972.517 992.266, 4970.575 989.535 C 4960.875 975.891, 4942.826 961.445, 4927.520 955.073 C 4912.713 948.909, 4902.368 946.854, 4884 946.429 C 4872.223 946.156, 4865.210 946.472, 4859.500 947.531 M 5360 946.679 C 5341.256 948.600, 5313.180 955.033, 5295.500 961.458 C 5281.241 966.640, 5259 976.231, 5259 977.198 C 5259 977.649, 5263.949 987.908, 5269.998 999.997 L 5280.997 1021.976 5286.748 1019.375 C 5326.470 1001.411, 5356.716 994.589, 5385.923 997.006 C 5417.948 999.655, 5436.362 1011.756, 5444.667 1035.609 C 5447.306 1043.190, 5447.429 1044.433, 5447.799 1067.250 C 5448.011 1080.313, 5447.899 1091, 5447.551 1091 C 5447.202 1091, 5442.358 1089.413, 5436.787 1087.474 C 5411.980 1078.839, 5392.344 1075.576, 5365.500 1075.626 C 5344.793 1075.665, 5335.002 1076.719, 5319.135 1080.617 C 5292.615 1087.133, 5269.933 1101.156, 5258.102 1118.352 C 5253.330 1125.288, 5248.302 1136.480, 5245.908 1145.500 C 5244.225 1151.839, 5243.784 1156.406, 5243.784 1167.500 C 5243.784 1184.729, 5245.696 1192.987, 5253.121 1207.819 C 5265.501 1232.552, 5289.192 1249.286, 5323 1257.177 C 5335.581 1260.114, 5368.055 1260.869, 5382.167 1258.553 C 5402.277 1255.252, 5423.352 1246.751, 5440.655 1234.959 L 5447.938 1229.996 5448.219 1242.248 L 5448.500 1254.500 5477.750 1254.765 L 5507 1255.030 5507 1147.646 C 5507 1028.982, 5507.140 1031.928, 5500.591 1012.738 C 5491.941 987.391, 5473.092 967.718, 5447.082 956.891 C 5437.564 952.928, 5420.225 948.529, 5408.500 947.101 C 5400.271 946.100, 5368.364 945.822, 5360 946.679 M 6041.500 947.528 C 5979.510 957.493, 5928.985 1004.348, 5914.520 1065.283 C 5904.244 1108.575, 5912.299 1154.073, 5936.721 1190.683 C 5968.404 1238.176, 6024.990 1265.397, 6081.107 1260.141 C 6117.837 1256.701, 6150.261 1242.016, 6176.348 1217.007 C 6199.534 1194.779, 6215.374 1166.420, 6222.063 1135.159 C 6224.703 1122.822, 6225.747 1096.167, 6224.080 1083.664 C 6215.102 1016.305, 6166.030 963.277, 6099.340 948.865 C 6086.429 946.075, 6055.049 945.350, 6041.500 947.528 M 6407.235 947.440 C 6385.307 951.588, 6367.145 959.952, 6349.750 973.911 L 6341 980.932 6341 966.466 L 6341 952 6311 952 L 6281 952 6281 1103.500 L 6281 1255 6311 1255 L 6341 1255 6341 1145.844 L 6341 1036.689 6343.713 1033.094 C 6360.543 1010.801, 6386.122 998.037, 6414 998.021 C 6451.861 997.998, 6477.815 1016.310, 6487.266 1049.713 C 6489.460 1057.466, 6489.471 1057.934, 6489.767 1156.250 L 6490.065 1255 6520.063 1255 L 6550.061 1255 6549.734 1149.250 C 6549.378 1034.307, 6549.638 1039.878, 6543.826 1022.500 C 6530.932 983.944, 6501.146 957.643, 6460 948.483 C 6449.688 946.187, 6417.249 945.546, 6407.235 947.440 M 2131 948.030 C 2088.134 953.194, 2056.146 972.744, 2041.878 1002.500 C 2035.640 1015.509, 2034.500 1021.227, 2034.500 1039.500 C 2034.500 1053.477, 2034.796 1056.448, 2036.842 1063 C 2046.127 1092.736, 2069.561 1111.195, 2109.282 1120.059 C 2114.113 1121.137, 2133.688 1124.254, 2152.782 1126.986 C 2171.877 1129.718, 2190.802 1132.876, 2194.839 1134.005 C 2209.218 1138.024, 2218.638 1144.306, 2223.529 1153.136 C 2226.268 1158.081, 2226.500 1159.281, 2226.500 1168.500 C 2226.500 1177.076, 2226.152 1179.212, 2224.055 1183.500 C 2210.521 1211.179, 2158.342 1221.891, 2112.194 1206.463 C 2096.023 1201.057, 2073.961 1189.200, 2060.856 1178.872 C 2058.852 1177.292, 2056.969 1176, 2056.672 1176 C 2055.969 1176, 2026.005 1212.824, 2025.378 1214.458 C 2024.728 1216.152, 2030.561 1221.102, 2042.164 1228.705 C 2072.990 1248.902, 2113.188 1260, 2155.520 1260 C 2183.246 1260, 2206.204 1255.225, 2227.243 1245.083 C 2253.890 1232.238, 2271.761 1213.262, 2280.205 1188.851 C 2283.283 1179.953, 2283.441 1178.774, 2283.470 1164.500 C 2283.505 1147.277, 2281.694 1138.954, 2275.215 1126.545 C 2270.213 1116.964, 2257.179 1103.835, 2246.500 1097.619 C 2228.335 1087.047, 2212.956 1082.990, 2164.625 1076.025 C 2126.167 1070.482, 2116.931 1068.560, 2107.453 1064.124 C 2099.311 1060.315, 2094.634 1055.990, 2091.290 1049.182 C 2088.893 1044.299, 2088.503 1042.304, 2088.522 1035 C 2088.540 1027.991, 2088.996 1025.526, 2091.125 1020.950 C 2096.302 1009.820, 2108.134 1001.271, 2124.500 996.836 C 2131.110 995.045, 2135.367 994.655, 2149 994.592 C 2158.980 994.546, 2168.464 995.056, 2173 995.884 C 2193.543 999.631, 2213.517 1007.230, 2232.496 1018.520 C 2238.487 1022.084, 2243.674 1025, 2244.022 1025 C 2244.959 1025, 2274 987.218, 2274 986 C 2274 984.578, 2262.498 977.252, 2249.913 970.658 C 2230.824 960.655, 2210.603 953.835, 2188.445 949.925 C 2174.885 947.532, 2143.679 946.503, 2131 948.030 M 3064.658 948.504 C 3030.322 954.098, 3001.527 969.051, 2978.298 993.350 C 2947.579 1025.483, 2931.938 1070.615, 2935.819 1115.926 C 2941.934 1187.332, 2990.518 1241.710, 3062 1257.156 C 3071.304 1259.166, 3075.291 1259.425, 3097 1259.427 C 3119.795 1259.430, 3122.374 1259.244, 3134.058 1256.748 C 3157.792 1251.679, 3179.295 1242.749, 3198.188 1230.116 C 3203.949 1226.264, 3209.272 1222.377, 3210.018 1221.478 C 3211.216 1220.035, 3209.290 1217.766, 3193.437 1201.945 C 3183.572 1192.100, 3174.911 1183.814, 3174.192 1183.531 C 3173.472 1183.249, 3169.647 1185.202, 3165.692 1187.871 C 3152.073 1197.060, 3137.643 1203.242, 3122 1206.590 C 3111.595 1208.817, 3085.647 1209.147, 3076.500 1207.169 C 3043.234 1199.976, 3016.203 1178.778, 3002.909 1149.460 C 3000.068 1143.194, 2995 1127.128, 2995 1124.388 C 2995 1123.212, 3013.225 1123, 3114.500 1123 L 3234 1123 3233.990 1112.750 C 3233.942 1065.314, 3221.220 1027.497, 3194.817 996.309 C 3175.271 973.219, 3147.325 956.640, 3116.508 949.850 C 3104.409 947.185, 3077.104 946.476, 3064.658 948.504 M 4026 1059.596 L 4026 1168.191 4023.805 1171.346 C 4012.670 1187.347, 3995.538 1199.647, 3976.821 1205.078 C 3966.378 1208.107, 3945.284 1208.847, 3934.078 1206.576 C 3904.969 1200.678, 3886.930 1182.881, 3879.266 1152.500 C 3877.638 1146.049, 3877.500 1137.916, 3877.500 1048.750 L 3877.500 952 3847.198 952 L 3816.897 952 3817.262 1055.250 C 3817.618 1156.101, 3817.675 1158.716, 3819.742 1167.782 C 3825.443 1192.800, 3833.782 1209.356, 3848.500 1224.880 C 3863.850 1241.071, 3879.924 1250.323, 3903.915 1256.777 C 3912.823 1259.174, 3915.089 1259.361, 3936 1259.428 C 3957.437 1259.497, 3958.980 1259.372, 3968.654 1256.784 C 3987.799 1251.664, 4004.353 1243.169, 4018.750 1231.076 L 4026 1224.986 4026 1239.493 L 4026 1254 4056 1254 L 4086 1254 4086 1102.500 L 4086 951 4056 951 L 4026 951 4026 1059.596 M 2329 1103.500 L 2329 1255 2359 1255 L 2389 1255 2389 1103.500 L 2389 952 2359 952 L 2329 952 2329 1103.500 M 5794 1103.500 L 5794 1255 5824 1255 L 5854 1255 5854 1103.500 L 5854 952 5824 952 L 5794 952 5794 1103.500 M 3071 998.634 C 3034.646 1005.599, 3007.595 1031.477, 2997.591 1068.857 L 2995.144 1078 3084.652 1078 L 3174.159 1078 3173.450 1074.750 C 3167.082 1045.535, 3147.250 1018.706, 3123 1006.502 C 3110.695 1000.310, 3104.022 998.774, 3088 998.449 C 3080.025 998.287, 3072.375 998.370, 3071 998.634 M 2594 999.604 C 2579.979 1001.211, 2573.175 1002.575, 2564 1005.619 C 2548.049 1010.911, 2536.529 1017.787, 2524.250 1029.347 L 2519 1034.290 2519 1103.565 L 2519 1172.840 2524.750 1178.013 C 2546.876 1197.920, 2575.584 1207.921, 2607 1206.668 C 2626.312 1205.898, 2639.176 1202.250, 2655.643 1192.874 C 2664.108 1188.055, 2676.764 1176.755, 2683.498 1168.003 C 2710.038 1133.512, 2711.487 1080.770, 2686.904 1044.018 C 2672.407 1022.345, 2649.332 1006.823, 2623.889 1001.630 C 2616.058 1000.032, 2599.849 998.933, 2594 999.604 M 4505 1000.553 C 4485.177 1004.804, 4468.271 1014.522, 4453.682 1030.055 C 4406.402 1080.393, 4420.863 1167.642, 4481.427 1197.453 C 4518.326 1215.614, 4561.263 1208.917, 4590.442 1180.447 C 4605.862 1165.402, 4616.339 1145.602, 4620.517 1123.610 C 4622.230 1114.592, 4622.550 1093.624, 4621.106 1085 C 4613.740 1041.005, 4581.844 1007.362, 4540.566 1000.051 C 4532.363 998.598, 4512.831 998.874, 4505 1000.553 M 6049.113 1000.486 C 6039.625 1002.631, 6033.355 1004.854, 6025 1009.031 C 5963.606 1039.729, 5950.046 1126.489, 5998.597 1177.956 C 6022.466 1203.258, 6059.746 1213.478, 6093.695 1204.027 C 6121.264 1196.351, 6145.720 1174.302, 6157.272 1146.706 C 6164.088 1130.423, 6165.504 1122.743, 6165.425 1102.500 C 6165.361 1086.383, 6165.081 1083.485, 6162.746 1074.794 C 6153.203 1039.280, 6127.830 1012.438, 6094.297 1002.380 C 6086.871 1000.153, 6083.162 999.687, 6070.500 999.392 C 6059.908 999.145, 6053.623 999.466, 6049.113 1000.486 M 5353.583 1118.039 C 5322.455 1122.936, 5303.032 1139.310, 5301.308 1162.109 C 5299.357 1187.903, 5317.580 1207.586, 5349 1213.623 C 5357.890 1215.331, 5380.823 1215.593, 5390 1214.091 C 5407.225 1211.271, 5427.449 1202.826, 5440.738 1192.904 L 5447.975 1187.500 5447.988 1161.193 L 5448 1134.886 5440.250 1131.347 C 5429.712 1126.535, 5417.478 1122.541, 5405.500 1120.003 C 5394.100 1117.587, 5363.753 1116.439, 5353.583 1118.039 M 2490.204 1427.173 C 2457.364 1431.293, 2432.261 1446.847, 2419.616 1470.911 C 2410.446 1488.362, 2408 1503.199, 2408 1541.378 L 2408 1569 2372.983 1569 L 2337.966 1569 2338.233 1594.250 L 2338.500 1619.500 2373.250 1619.763 L 2408 1620.026 2408 1746.013 L 2408 1872 2438 1872 L 2468 1872 2468 1746 L 2468 1620 2511 1620 L 2554 1620 2554 1594.500 L 2554 1569 2510.898 1569 L 2467.795 1569 2468.270 1540.750 C 2468.784 1510.207, 2469.284 1506.766, 2474.633 1496.928 C 2484.508 1478.767, 2514.471 1473.131, 2551.250 1482.515 L 2554 1483.217 2554 1457.227 L 2554 1431.237 2549.401 1430.079 C 2534.252 1426.265, 2507.799 1424.966, 2490.204 1427.173 M 1721.250 1448.764 L 1692 1455.295 1692 1663.647 L 1692 1872 1722 1872 L 1752 1872 1752 1657 C 1752 1538.750, 1751.662 1442.052, 1751.250 1442.116 C 1750.838 1442.180, 1737.338 1445.171, 1721.250 1448.764 M 1306 1663.500 L 1306 1872 1337.500 1872 L 1369 1872 1369 1788.046 L 1369 1704.091 1446.750 1703.739 C 1521.728 1703.400, 1524.831 1703.311, 1533.782 1701.265 C 1573.766 1692.124, 1601.958 1672.763, 1619.971 1642.075 C 1638.099 1611.187, 1640.547 1566.670, 1626.099 1530.589 C 1609.100 1488.136, 1568.225 1460.746, 1514.813 1456.019 C 1508.209 1455.434, 1462.400 1455.014, 1404.750 1455.009 L 1306 1455 1306 1663.500 M 2194.260 1484.408 L 2165.020 1491.500 2165.010 1530.250 L 2165 1569 2133 1569 L 2101 1569 2101 1594 L 2101 1619 2132.967 1619 L 2164.934 1619 2165.266 1716.250 C 2165.640 1825.861, 2165.187 1819.258, 2173.521 1836.500 C 2180.436 1850.806, 2191.204 1861.166, 2206.154 1867.894 C 2231.693 1879.389, 2271.399 1880.004, 2307.750 1869.466 L 2313 1867.944 2313 1842.855 L 2313 1817.767 2310.750 1818.278 C 2309.512 1818.558, 2305.016 1819.717, 2300.759 1820.851 C 2284.927 1825.070, 2262.917 1825.911, 2250 1822.792 C 2240.304 1820.450, 2233.403 1815.578, 2229.756 1808.500 C 2224.999 1799.267, 2225.024 1799.821, 2225.012 1706.750 L 2225 1619 2269.500 1619 L 2314 1619 2314 1594 L 2314 1569 2269.500 1569 L 2225 1569 2225 1523.559 C 2225 1498.566, 2224.662 1477.938, 2224.250 1477.717 C 2223.838 1477.496, 2210.342 1480.507, 2194.260 1484.408 M 1369 1581 L 1369 1651.099 1439.750 1650.738 C 1516.950 1650.344, 1514.285 1650.534, 1529.871 1644.327 C 1549.797 1636.391, 1563.474 1621.480, 1569.154 1601.500 C 1572.092 1591.165, 1572.349 1571.976, 1569.683 1562 C 1566.349 1549.524, 1561.690 1541.427, 1552.728 1532.537 C 1543.240 1523.125, 1533.205 1517.561, 1519 1513.836 C 1510.664 1511.650, 1509.137 1511.600, 1439.750 1511.254 L 1369 1510.901 1369 1581 M 3070.663 1563.132 C 3048.515 1565.977, 3024.275 1579.788, 3010.334 1597.503 L 3004.500 1604.916 3004.227 1586.943 L 3003.955 1568.971 2973.727 1569.235 L 2943.500 1569.500 2943.500 1720.500 L 2943.500 1871.500 2973.750 1871.765 L 3004 1872.029 3004 1770.385 L 3004 1668.742 3008.608 1660.002 C 3019.742 1638.885, 3037.478 1623.898, 3058.545 1617.806 C 3065.320 1615.846, 3068.799 1615.505, 3082 1615.505 C 3096.871 1615.504, 3105.558 1616.823, 3115.303 1620.563 C 3116.873 1621.165, 3117 1619.194, 3117 1594.187 L 3117 1567.161 3112.250 1565.632 C 3101.071 1562.033, 3086.177 1561.138, 3070.663 1563.132 M 1924 1563.654 C 1897.289 1566.159, 1865.643 1574.636, 1838 1586.690 C 1831.125 1589.688, 1824.713 1592.387, 1823.750 1592.687 C 1822.787 1592.988, 1822 1593.575, 1822 1593.992 C 1822 1594.717, 1842.778 1638.111, 1843.444 1638.777 C 1843.621 1638.955, 1848.206 1637.109, 1853.633 1634.675 C 1875.378 1624.925, 1893.702 1619.061, 1912.500 1615.838 C 1922.598 1614.106, 1927.274 1613.860, 1942 1614.286 C 1961.843 1614.860, 1968.147 1616.124, 1980.500 1622.007 C 1994.131 1628.499, 2002.763 1638.491, 2007.703 1653.500 C 2010.178 1661.018, 2010.363 1662.924, 2010.771 1685.149 L 2011.205 1708.799 2002.277 1705.445 C 1961.231 1690.028, 1908.733 1688.251, 1870.550 1700.987 C 1827.468 1715.357, 1804.217 1747.397, 1806.315 1789.500 C 1808.555 1834.451, 1840.716 1866.556, 1892.500 1875.535 C 1906.168 1877.904, 1933.069 1877.939, 1946 1875.603 C 1968.311 1871.573, 1988.042 1863.003, 2008.750 1848.348 L 2011 1846.756 2011 1859.378 L 2011 1872 2040.500 1872 L 2070 1872 2069.996 1765.750 C 2069.992 1652.289, 2069.928 1650.608, 2064.990 1634 C 2062.785 1626.581, 2056.586 1613.590, 2052.147 1607.086 C 2047.861 1600.805, 2037.521 1590.495, 2030.500 1585.500 C 2017.553 1576.290, 1998.913 1568.904, 1980 1565.489 C 1970.730 1563.815, 1934.823 1562.638, 1924 1563.654 M 2707.516 1564.085 C 2639.882 1573.358, 2586.419 1625.475, 2574.842 1693.417 C 2571.848 1710.985, 2572.535 1737.457, 2576.422 1754.361 C 2593.685 1829.422, 2660.645 1880.975, 2736.500 1877.607 C 2794.611 1875.027, 2844.218 1843.044, 2871.010 1790.886 C 2889.795 1754.316, 2892.835 1710.528, 2879.399 1670.072 C 2864.243 1624.433, 2826.196 1586.377, 2780.467 1571.115 C 2763.898 1565.584, 2753.273 1563.877, 2733 1563.485 C 2722.825 1563.288, 2711.357 1563.558, 2707.516 1564.085 M 3287.785 1564.479 C 3266.704 1567.935, 3240.892 1580.230, 3229.031 1592.468 C 3227.148 1594.410, 3225.246 1596, 3224.804 1596 C 3224.362 1596, 3224 1589.925, 3224 1582.500 L 3224 1569 3194 1569 L 3164 1569 3164 1720.500 L 3164 1872 3194 1872 L 3224 1872 3224 1761.582 L 3224 1651.163 3228.677 1645.332 C 3241.450 1629.407, 3258.993 1619.196, 3279 1616.040 C 3308.691 1611.357, 3336.991 1623.265, 3350.276 1646.030 C 3354.482 1653.239, 3358.419 1664.691, 3359.965 1674.214 C 3360.607 1678.171, 3360.988 1715.975, 3360.992 1776.250 L 3361 1872 3391 1872 L 3421 1872 3421 1772.920 C 3421 1706.410, 3420.634 1670.735, 3419.886 1664.392 C 3418.780 1655.015, 3418.791 1654.914, 3421.392 1650.984 C 3426.082 1643.897, 3437.185 1632.993, 3444.809 1627.988 C 3467.479 1613.105, 3497.985 1611.005, 3522 1622.674 C 3537.515 1630.213, 3549.565 1646.103, 3555.236 1666.500 C 3557.455 1674.483, 3557.460 1674.712, 3557.767 1773.250 L 3558.074 1872 3588.072 1872 L 3618.070 1872 3617.740 1766.750 C 3617.419 1664.006, 3617.361 1661.286, 3615.313 1652.500 C 3607.504 1618.992, 3590.197 1594.088, 3564.006 1578.674 C 3544.379 1567.122, 3522.030 1562.112, 3495.500 1563.316 C 3460.385 1564.909, 3429.575 1580.181, 3406.926 1607.221 L 3402.134 1612.942 3397.690 1606.721 C 3383.435 1586.764, 3360.140 1571.576, 3335.064 1565.889 C 3323.473 1563.261, 3299.570 1562.548, 3287.785 1564.479 M 2714.660 1616.982 C 2680.740 1623.133, 2651.663 1647.392, 2639.036 1680.077 C 2630.306 1702.673, 2629.621 1732.919, 2637.328 1755.513 C 2643.315 1773.067, 2654.765 1790.468, 2667.332 1801.113 C 2717.034 1843.212, 2789.826 1827.075, 2818.033 1767.706 C 2840.761 1719.871, 2825.887 1660.701, 2784 1632.313 C 2776.566 1627.275, 2765.604 1622.170, 2756.288 1619.407 C 2749.083 1617.271, 2744.978 1616.739, 2733.500 1616.453 C 2725.800 1616.261, 2717.322 1616.500, 2714.660 1616.982 M 1918 1735 C 1889.562 1738.881, 1870.750 1752.238, 1865.395 1772.350 C 1861.091 1788.515, 1867.129 1806.732, 1880.221 1817.081 C 1891.230 1825.783, 1903.956 1830.274, 1922.829 1832.117 C 1952.109 1834.976, 1981.163 1826.802, 2005.250 1808.930 L 2011 1804.664 2011 1778.490 L 2011 1752.315 2003.250 1748.679 C 1992.319 1743.549, 1979.365 1739.342, 1967.062 1736.924 C 1955.107 1734.575, 1928.702 1733.540, 1918 1735" stroke="none" fill="#fcfcfc" fill-rule="evenodd"/></svg>