<?xml version="1.0" encoding="utf-8"?>
<svg xmlns="http://www.w3.org/2000/svg" width="6571" height="2000" viewBox="1233.73 0 5337.27 2000" version="1.1">
  <path d="M 1829.06 22.013 C 1821.4 24.459 1814.99 28.826 1803.4 39.487 C 1784.87 56.535 1775.17 61.839 1760.81 62.773 C 1745.5 63.77 1733.56 60.365 1705.32 46.958 C 1677.08 33.55 1665.16 30.187 1650.28 31.428 C 1622.41 33.752 1603.1 51.152 1586.91 88.518 C 1582.86 97.876 1554.9 176.413 1535.82 232.038 C 1531.2 245.513 1522.6 268.575 1516.7 283.288 L 1505.98 310.038 L 1500.44 310.051 C 1492.96 310.068 1462.79 312.662 1447.4 314.611 C 1387 322.263 1344 338.38 1317.94 363.135 C 1307.73 372.83 1302.06 380.544 1296.25 392.625 C 1280.06 426.317 1282.25 465.854 1302.59 506.814 C 1353.58 609.505 1522.7 721.43 1728.08 788.407 C 1876.98 836.962 2028.72 854.498 2148.37 836.976 C 2279.15 817.823 2357.67 756.086 2371.95 661.178 C 2374.12 646.759 2374.12 623.216 2371.95 611.043 C 2359.77 542.798 2298.34 476.226 2208.93 434.375 L 2197.9 429.211 L 2195.14 417.875 C 2193.62 411.639 2180.66 355.688 2166.33 293.538 C 2151.99 231.388 2138.96 176.613 2137.36 171.815 C 2128.5 145.213 2113.04 128.873 2077.58 108.649 C 2020.87 76.3 1901.5 29.872 1853.52 21.5 C 1842.58 19.591 1836.22 19.725 1829.06 22.013" stroke="none" fill="#eb0404" fill-rule="evenodd"/>
  <path d="M 2521.39 885.941 C 2510.82 888.315 2498.09 891.181 2493.07 892.311 L 2483.95 894.366 L 2483.95 1099.66 L 2483.95 1304.97 L 2512.99 1304.97 L 2542.01 1304.97 L 2542.3 1292.66 L 2542.57 1280.36 L 2548.47 1284.36 C 2580.76 1306.16 2623.64 1314.4 2663.07 1306.38 C 2737.95 1291.14 2789.32 1221.61 2783.39 1143.48 C 2778.05 1073.2 2731.09 1019.01 2662.82 1004.34 C 2649.32 1001.43 2618.93 1001.16 2605.78 1003.84 C 2586.74 1007.71 2568.57 1015.49 2552.18 1026.81 L 2543.05 1033.09 L 2543.05 957.25 C 2543.05 897.165 2542.8 881.421 2541.84 881.511 C 2541.16 881.575 2531.95 883.567 2521.39 885.941 M 2873.07 886.786 C 2860.32 889.66 2847.36 892.536 2844.24 893.178 L 2838.57 894.344 L 2838.57 1099.65 L 2838.57 1304.97 L 2868.14 1304.97 L 2897.68 1304.97 L 2897.68 1093.18 C 2897.68 976.706 2897.34 881.435 2896.95 881.479 C 2896.53 881.523 2885.8 883.911 2873.07 886.786 M 2376.61 886.856 C 2353.59 893.307 2342.86 918.603 2354.14 939.774 C 2363.28 956.912 2385.09 963.754 2403.05 955.119 C 2410.05 951.753 2418.2 943.064 2420.93 936.057 C 2424.11 927.871 2424.11 916.69 2420.93 908.488 C 2417.72 900.262 2408.82 891.405 2400.72 888.375 C 2393.03 885.502 2383.57 884.905 2376.61 886.856 M 5789.82 886.837 C 5778.78 889.884 5769.35 898.628 5765.19 909.684 C 5763.44 914.351 5763.11 916.898 5763.44 923.751 C 5763.93 934.025 5766.94 941.304 5773.4 947.774 C 5791.93 966.289 5822.77 960.682 5833.98 936.779 C 5836.23 931.97 5836.61 929.838 5836.61 922.275 C 5836.61 914.406 5836.27 912.7 5833.56 907.01 C 5825.7 890.511 5807.3 882.016 5789.82 886.837 M 1474.43 901.345 C 1436.88 991.668 1308.41 1302.01 1308.07 1303.27 C 1307.59 1304.9 1309.39 1304.98 1339.79 1304.74 L 1372.02 1304.48 L 1395.86 1244.88 L 1419.68 1185.29 L 1511.24 1185.29 L 1602.79 1185.29 L 1626.43 1245.13 L 1650.09 1304.97 L 1683.86 1304.97 L 1717.61 1304.97 L 1716.3 1301.77 C 1715.59 1300.01 1677.82 1207.59 1632.39 1096.39 L 1549.8 894.204 L 1513.61 894.204 L 1477.4 894.204 L 1474.43 901.345 M 3475.43 1098.71 C 3428.84 1211.19 3390.55 1303.62 3390.38 1304.1 C 3390.2 1304.6 3403.89 1304.97 3422.39 1304.96 L 3454.74 1304.94 L 3478.72 1244.87 L 3502.7 1184.8 L 3594.05 1184.8 L 3685.41 1184.8 L 3709.09 1244.64 L 3732.74 1304.48 L 3766.38 1304.73 C 3784.88 1304.88 3799.99 1304.66 3799.97 1304.24 C 3799.97 1303.83 3762.36 1211.52 3716.41 1099.1 L 3632.86 894.697 L 3596.51 894.449 L 3560.14 894.202 L 3475.43 1098.71 M 4223.27 922.778 C 4208.2 926.472 4195.24 929.751 4194.45 930.046 C 4193.26 930.505 4193.05 936.396 4193.05 968.552 L 4193.05 1006.5 L 4161.52 1006.5 L 4129.98 1006.5 L 4129.98 1031.12 L 4129.98 1055.75 L 4161.52 1055.75 L 4193.05 1055.75 L 4193.1 1130.37 C 4193.16 1215.21 4194.03 1247.29 4196.48 1256.21 C 4197.38 1259.46 4199.9 1265.9 4202.1 1270.5 C 4205.34 1277.29 4207.65 1280.39 4214.22 1286.91 C 4220.88 1293.5 4224.02 1295.77 4231.57 1299.42 C 4250.41 1308.52 4273.81 1311.72 4300.19 1308.85 C 4310.8 1307.7 4325.7 1304.87 4333.65 1302.5 L 4338.82 1300.96 L 4338.82 1276.26 L 4338.82 1251.56 L 4336.6 1252.06 C 4335.4 1252.33 4330.91 1253.48 4326.63 1254.63 C 4311.76 1258.59 4286.47 1259.21 4275.26 1255.88 C 4262.4 1252.07 4255.31 1243.26 4253.16 1228.52 C 4252.57 1224.45 4252.18 1188.55 4252.16 1138.74 L 4252.15 1055.75 L 4295.98 1055.75 L 4339.81 1055.75 L 4339.81 1030.63 L 4339.81 1005.52 L 4295.98 1005.52 L 4252.15 1005.52 L 4252.15 960.693 C 4252.15 936.047 4251.81 915.914 4251.4 915.968 C 4251.01 916.023 4238.34 919.083 4223.27 922.778 M 5610.4 922.723 C 5595.4 926.385 5582.44 929.664 5581.56 929.991 C 5580.19 930.527 5580.01 934.79 5580.01 968.552 L 5580.01 1006.5 L 5548.48 1006.5 L 5516.97 1006.5 L 5516.97 1031.12 L 5516.97 1055.75 L 5548.48 1055.75 L 5580.01 1055.75 L 5580.01 1145.18 C 5580.01 1199.98 5580.4 1237.83 5581.02 1242.94 C 5585.65 1281.46 5609.39 1303.66 5651.43 1308.81 C 5671.78 1311.31 5699.6 1308.76 5720.63 1302.5 L 5725.8 1300.96 L 5725.8 1276.26 L 5725.8 1251.56 L 5723.57 1252.06 C 5722.35 1252.33 5717.86 1253.48 5713.59 1254.63 C 5697.13 1259.01 5672.3 1259.25 5660.23 1255.15 C 5650.89 1251.98 5645.05 1246.19 5641.44 1236.51 C 5639.72 1231.86 5639.6 1226.63 5639.34 1143.67 L 5639.05 1055.75 L 5682.94 1055.75 L 5726.82 1055.75 L 5726.56 1030.87 L 5726.3 1006.01 L 5682.7 1005.76 L 5639.11 1005.49 L 5639.11 960.682 C 5639.11 936.036 5638.78 915.914 5638.38 915.958 C 5637.97 916.012 5625.36 919.051 5610.4 922.723 M 1475.98 1044.2 C 1456.61 1092.99 1440.92 1133.06 1441.12 1133.24 C 1441.3 1133.44 1473.15 1133.47 1511.9 1133.34 L 1582.37 1133.08 L 1547.29 1044.75 C 1527.97 996.161 1511.96 956.212 1511.68 955.961 C 1511.42 955.698 1495.36 995.417 1475.98 1044.2 M 3565.09 1028.72 C 3548.95 1069.32 3532.95 1109.52 3529.55 1118.06 L 3523.38 1133.57 L 3594.2 1133.57 C 3633.16 1133.57 3665.05 1133.35 3665.05 1133.08 C 3665.05 1132.82 3649.49 1093.47 3630.47 1045.65 C 3611.45 997.841 3595.57 957.862 3595.16 956.813 C 3594.64 955.414 3586.45 974.968 3565.09 1028.72 M 1880.61 1001.27 C 1878.98 1001.48 1873.01 1002.79 1867.31 1004.19 C 1848.96 1008.7 1832.82 1016.89 1818.3 1029.09 L 1811.16 1035.08 L 1811.16 1020.8 L 1811.16 1006.5 L 1781.61 1006.5 L 1752.06 1006.5 L 1752.06 1155.74 L 1752.06 1304.97 L 1781.61 1304.97 L 1811.16 1304.97 L 1811.16 1197.5 L 1811.16 1090 L 1814.6 1085.33 C 1819.81 1078.21 1830.88 1068.24 1838.68 1063.61 C 1853.38 1054.87 1869.34 1051.2 1888.48 1052.14 C 1923.8 1053.87 1945.99 1071.08 1955.29 1103.93 C 1957.38 1111.32 1957.4 1112.62 1957.7 1208.19 L 1958.02 1304.97 L 1987.53 1304.97 L 2017.04 1304.97 L 2017.04 1206.05 C 2017.04 1141.5 2016.67 1104.44 2015.98 1099.41 C 2008.88 1047.2 1973.48 1010.39 1922.43 1002.11 C 1913.87 1000.72 1888.7 1000.22 1880.61 1001.27 M 4492.99 1001.96 C 4458.99 1007.55 4432.07 1021.39 4407.73 1045.81 C 4389.6 1063.98 4378.2 1082.25 4370.48 1105.5 C 4360.11 1136.73 4360.1 1172.16 4370.45 1203.84 C 4378.77 1229.26 4394.97 1253.98 4414.64 1271.29 C 4456.57 1308.14 4513.3 1320.08 4565.49 1302.99 C 4590.53 1294.81 4608.59 1283.65 4627.48 1264.66 C 4651.34 1240.68 4665.27 1213.76 4670.9 1180.76 C 4672.69 1170.27 4672.9 1166.02 4672.45 1150.81 C 4672.09 1138.26 4671.34 1130.41 4669.91 1123.95 C 4663.15 1093.37 4649.15 1067.65 4627.43 1045.92 C 4605.52 1024.02 4579.77 1010.06 4548.98 1003.42 C 4536.73 1000.76 4505.27 999.951 4492.99 1001.96 M 4848.6 1002.09 C 4827.28 1006.05 4808.68 1014.9 4792.2 1028.94 L 4787.03 1033.33 L 4787.03 1019.91 L 4787.03 1006.5 L 4757.48 1006.5 L 4727.93 1006.5 L 4727.93 1155.74 L 4727.93 1304.97 L 4757.48 1304.97 L 4787.03 1304.97 L 4787.03 1196.19 L 4787.03 1087.41 L 4792.32 1080.81 C 4802.22 1068.47 4817.7 1058.4 4833.32 1054.13 C 4842.19 1051.73 4864.73 1051.68 4873.73 1054.07 C 4891.73 1058.83 4905.66 1070.2 4913.43 1086.4 C 4921.97 1104.2 4921.38 1095.96 4921.97 1206.47 L 4922.48 1304.48 L 4951.78 1304.74 L 4981.09 1305 L 4981.09 1206.15 C 4981.09 1139.57 4980.73 1104.65 4980.01 1099.22 C 4978.94 1091.32 4978.98 1091.04 4981.44 1087.3 C 4985.72 1080.86 4996.02 1070.48 5003.06 1065.52 C 5016.97 1055.76 5034.27 1051.08 5052.49 1052.16 C 5084.26 1054.06 5104.52 1070.63 5113.4 1101.96 C 5115.48 1109.35 5115.52 1110.62 5115.81 1207.2 L 5116.11 1304.97 L 5145.64 1304.97 L 5175.15 1304.97 L 5175.15 1205.86 C 5175.15 1096.67 5175.09 1095.42 5169.06 1076.47 C 5155.73 1034.53 5123.03 1007.38 5078.77 1001.47 C 5068.03 1000.04 5042.99 1000.91 5034.28 1003.02 C 5007.66 1009.48 4985.52 1022.61 4968.97 1041.75 C 4965.81 1045.39 4962.85 1048.36 4962.36 1048.36 C 4961.9 1048.36 4959.93 1046.16 4958.02 1043.47 C 4948.45 1030.03 4930.69 1015.81 4915.6 1009.53 C 4901.02 1003.46 4890.82 1001.43 4872.73 1001.01 C 4861.15 1000.74 4854.23 1001.06 4848.6 1002.09 M 5341.63 1001.26 C 5323.16 1003.15 5295.51 1009.49 5278.09 1015.82 C 5264.03 1020.92 5242.14 1030.37 5242.14 1031.32 C 5242.14 1031.77 5247.01 1041.87 5252.97 1053.78 L 5263.81 1075.43 L 5269.47 1072.88 C 5308.6 1055.17 5338.4 1048.45 5367.16 1050.83 C 5398.7 1053.44 5416.85 1065.37 5425.02 1088.86 C 5427.63 1096.33 5427.74 1097.56 5428.11 1120.03 C 5428.31 1132.9 5428.22 1143.42 5427.86 1143.42 C 5427.52 1143.42 5422.74 1141.86 5417.27 1139.95 C 5392.82 1131.44 5373.48 1128.24 5347.03 1128.28 C 5326.65 1128.32 5316.99 1129.35 5301.38 1133.2 C 5275.24 1139.62 5252.9 1153.43 5241.24 1170.36 C 5236.55 1177.2 5231.6 1188.22 5229.23 1197.1 C 5227.59 1203.36 5227.15 1207.86 5227.15 1218.78 C 5227.15 1235.75 5229.02 1243.88 5236.34 1258.5 C 5248.53 1282.86 5271.88 1299.35 5305.18 1307.12 C 5317.57 1310.02 5349.56 1310.75 5363.47 1308.47 C 5383.27 1305.22 5404.02 1296.85 5421.07 1285.23 L 5428.24 1280.35 L 5428.53 1292.41 L 5428.81 1304.48 L 5457.61 1304.74 L 5486.43 1305 L 5486.43 1199.22 C 5486.43 1082.33 5486.56 1085.24 5480.1 1066.33 C 5471.6 1041.35 5453.02 1021.99 5427.4 1011.32 C 5418.03 1007.42 5400.95 1003.08 5389.4 1001.68 C 5381.3 1000.69 5349.86 1000.41 5341.63 1001.26 M 6012.94 1002.09 C 5951.89 1011.91 5902.1 1058.07 5887.85 1118.08 C 5877.74 1160.74 5885.66 1205.56 5909.73 1241.62 C 5940.94 1288.4 5996.69 1315.21 6051.95 1310.03 C 6088.15 1306.64 6120.09 1292.18 6145.77 1267.55 C 6168.63 1245.65 6184.23 1217.72 6190.81 1186.92 C 6193.4 1174.76 6194.44 1148.51 6192.8 1136.2 C 6183.94 1069.85 6135.61 1017.61 6069.91 1003.42 C 6057.2 1000.66 6026.3 999.951 6012.94 1002.09 M 6373.22 1002.01 C 6351.61 1006.1 6333.73 1014.33 6316.59 1028.09 L 6307.97 1034.99 L 6307.97 1020.75 L 6307.97 1006.5 L 6278.41 1006.5 L 6248.86 1006.5 L 6248.86 1155.74 L 6248.86 1304.97 L 6278.41 1304.97 L 6307.97 1304.97 L 6307.97 1197.45 L 6307.97 1089.93 L 6310.65 1086.38 C 6327.23 1064.42 6352.41 1051.85 6379.89 1051.84 C 6417.18 1051.81 6442.74 1069.85 6452.06 1102.75 C 6454.2 1110.39 6454.22 1110.86 6454.52 1207.69 L 6454.81 1304.97 L 6484.35 1304.97 L 6513.9 1304.97 L 6513.59 1200.8 C 6513.23 1087.58 6513.48 1093.06 6507.77 1075.95 C 6495.06 1037.97 6465.73 1012.06 6425.19 1003.03 C 6415.03 1000.77 6383.07 1000.14 6373.22 1002.01 M 2160.86 1002.59 C 2118.63 1007.68 2087.11 1026.94 2073.07 1056.24 C 2066.91 1069.06 2065.8 1074.69 2065.8 1092.69 C 2065.8 1106.46 2066.09 1109.39 2068.11 1115.84 C 2077.24 1145.13 2100.34 1163.32 2139.47 1172.05 C 2144.22 1173.11 2163.51 1176.18 2182.3 1178.87 C 2201.13 1181.56 2219.76 1184.68 2223.74 1185.79 C 2237.91 1189.75 2247.18 1195.93 2252.01 1204.63 C 2254.7 1209.5 2254.93 1210.68 2254.93 1219.76 C 2254.93 1228.21 2254.59 1230.32 2252.53 1234.54 C 2239.18 1261.81 2187.78 1272.36 2142.34 1257.15 C 2126.41 1251.84 2104.68 1240.16 2091.76 1229.98 C 2089.78 1228.42 2087.93 1227.15 2087.64 1227.15 C 2086.95 1227.15 2057.43 1263.43 2056.82 1265.03 C 2056.18 1266.71 2061.91 1271.58 2073.34 1279.08 C 2103.7 1298.96 2143.3 1309.9 2185.01 1309.9 C 2212.32 1309.9 2234.95 1305.2 2255.66 1295.21 C 2281.91 1282.55 2299.51 1263.85 2307.84 1239.81 C 2310.86 1231.04 2311.01 1229.89 2311.05 1215.83 C 2311.09 1198.86 2309.3 1190.67 2302.91 1178.44 C 2297.99 1169 2285.14 1156.07 2274.64 1149.94 C 2256.74 1139.54 2241.59 1135.53 2193.97 1128.67 C 2156.09 1123.21 2146.99 1121.32 2137.66 1116.96 C 2129.64 1113.2 2125.03 1108.93 2121.74 1102.22 C 2119.39 1097.42 2119.01 1095.46 2119.01 1088.25 C 2119.03 1081.36 2119.49 1078.93 2121.59 1074.42 C 2126.68 1063.45 2138.34 1055.03 2154.45 1050.67 C 2160.95 1048.91 2165.16 1048.52 2178.59 1048.45 C 2188.41 1048.41 2197.76 1048.92 2202.24 1049.74 C 2222.47 1053.42 2242.14 1060.91 2260.84 1072.02 C 2266.74 1075.54 2271.86 1078.41 2272.18 1078.41 C 2273.11 1078.41 2301.72 1041.19 2301.72 1039.99 C 2301.72 1038.59 2290.39 1031.37 2277.99 1024.88 C 2259.2 1015.02 2239.28 1008.31 2217.45 1004.46 C 2204.09 1002.09 2173.34 1001.09 2160.86 1002.59 M 3080.57 1003.06 C 3046.74 1008.57 3018.39 1023.3 2995.49 1047.24 C 2965.24 1078.88 2949.84 1123.35 2953.66 1167.98 C 2959.68 1238.31 3007.55 1291.88 3077.95 1307.1 C 3087.13 1309.08 3091.03 1309.33 3112.43 1309.33 C 3134.89 1309.33 3137.43 1309.16 3148.93 1306.7 C 3172.3 1301.7 3193.51 1292.9 3212.11 1280.47 C 3217.78 1276.67 3223.03 1272.84 3223.76 1271.95 C 3224.93 1270.53 3223.03 1268.3 3207.43 1252.71 C 3197.7 1243.01 3189.18 1234.86 3188.47 1234.57 C 3187.76 1234.3 3183.99 1236.21 3180.09 1238.85 C 3166.66 1247.89 3152.47 1253.98 3137.05 1257.28 C 3126.8 1259.48 3101.24 1259.81 3092.24 1257.85 C 3059.47 1250.77 3032.84 1229.89 3019.74 1201.01 C 3016.95 1194.84 3011.95 1179.02 3011.95 1176.32 C 3011.95 1175.15 3029.91 1174.94 3129.66 1174.94 L 3247.38 1174.94 L 3247.38 1164.85 C 3247.32 1118.13 3234.8 1080.87 3208.78 1050.14 C 3189.53 1027.4 3162.01 1011.07 3131.64 1004.38 C 3119.72 1001.76 3092.84 1001.06 3080.57 1003.06 M 4027.55 1112.5 L 4027.55 1219.46 L 4025.39 1222.57 C 4014.41 1238.33 3997.55 1250.45 3979.11 1255.8 C 3968.82 1258.78 3948.05 1259.51 3937.01 1257.27 C 3908.32 1251.46 3890.57 1233.93 3883.01 1204 C 3881.41 1197.65 3881.28 1189.64 3881.28 1101.81 L 3881.28 1006.5 L 3851.43 1006.5 L 3821.57 1006.5 L 3821.93 1108.2 C 3822.28 1207.55 3822.34 1210.13 3824.38 1219.05 C 3829.99 1243.7 3838.2 1260.02 3852.7 1275.31 C 3867.82 1291.25 3883.66 1300.37 3907.3 1306.73 C 3916.07 1309.09 3918.3 1309.27 3938.89 1309.33 C 3960.01 1309.41 3961.53 1309.28 3971.07 1306.74 C 3989.93 1301.69 4006.24 1293.32 4020.41 1281.41 L 4027.55 1275.41 L 4027.55 1289.69 L 4027.55 1303.99 L 4057.09 1303.99 L 4086.66 1303.99 L 4086.66 1154.75 L 4086.66 1005.52 L 4057.09 1005.52 L 4027.55 1005.52 L 4027.55 1112.5 M 2355.89 1155.74 L 2355.89 1304.97 L 2385.45 1304.97 L 2415.01 1304.97 L 2415.01 1155.74 L 2415.01 1006.5 L 2385.45 1006.5 L 2355.89 1006.5 L 2355.89 1155.74 M 5769.14 1155.74 L 5769.14 1304.97 L 5798.69 1304.97 L 5828.24 1304.97 L 5828.24 1155.74 L 5828.24 1006.5 L 5798.69 1006.5 L 5769.14 1006.5 L 5769.14 1155.74 M 3086.82 1052.44 C 3051.01 1059.3 3024.36 1084.79 3014.51 1121.61 L 3012.09 1130.62 L 3100.26 1130.62 L 3188.43 1130.62 L 3187.72 1127.42 C 3181.45 1098.64 3161.93 1072.21 3138.03 1060.19 C 3125.93 1054.09 3119.34 1052.58 3103.55 1052.25 C 3095.72 1052.1 3088.16 1052.17 3086.82 1052.44 M 2616.95 1053.4 C 2603.13 1054.97 2596.43 1056.32 2587.39 1059.31 C 2571.66 1064.53 2560.32 1071.3 2548.22 1082.69 L 2543.05 1087.56 L 2543.05 1155.8 L 2543.05 1224.04 L 2548.72 1229.13 C 2570.53 1248.75 2598.8 1258.6 2629.74 1257.36 C 2648.76 1256.61 2661.45 1253.01 2677.66 1243.78 C 2685.99 1239.03 2698.47 1227.9 2705.11 1219.27 C 2731.24 1185.3 2732.68 1133.34 2708.45 1097.14 C 2694.18 1075.79 2671.43 1060.51 2646.39 1055.39 C 2638.66 1053.81 2622.7 1052.73 2616.95 1053.4 M 4499.4 1054.33 C 4479.86 1058.51 4463.2 1068.09 4448.84 1083.39 C 4402.27 1132.98 4416.52 1218.92 4476.16 1248.28 C 4512.52 1266.18 4554.82 1259.58 4583.56 1231.53 C 4598.74 1216.71 4609.06 1197.2 4613.19 1175.55 C 4614.86 1166.65 4615.19 1146.01 4613.77 1137.52 C 4606.51 1094.18 4575.1 1061.03 4534.43 1053.83 C 4526.35 1052.4 4507.1 1052.68 4499.4 1054.33 M 6020.44 1054.26 C 6011.1 1056.37 6004.93 1058.57 5996.69 1062.68 C 5936.23 1092.92 5922.86 1178.38 5970.69 1229.09 C 5994.19 1254.01 6030.91 1264.07 6064.36 1254.76 C 6091.52 1247.2 6115.6 1225.48 6126.98 1198.3 C 6133.69 1182.26 6135.1 1174.69 6135.02 1154.75 C 6134.95 1138.88 6134.68 1136.03 6132.38 1127.46 C 6122.98 1092.47 6097.98 1066.03 6064.95 1056.13 C 6057.63 1053.93 6053.98 1053.48 6041.51 1053.18 C 6031.07 1052.94 6024.9 1053.26 6020.44 1054.26 M 5335.31 1170.05 C 5304.65 1174.88 5285.51 1191.01 5283.81 1213.47 C 5281.89 1238.89 5299.84 1258.27 5330.78 1264.22 C 5339.53 1265.9 5362.14 1266.16 5371.16 1264.67 C 5388.15 1261.9 5408.06 1253.58 5421.15 1243.81 L 5428.28 1238.49 L 5428.3 1212.56 L 5428.31 1186.66 L 5420.68 1183.17 C 5410.28 1178.42 5398.24 1174.49 5386.44 1171.99 C 5375.22 1169.62 5345.32 1168.48 5335.31 1170.05 M 2514.7 1474.58 C 2482.36 1478.63 2457.61 1493.96 2445.16 1517.65 C 2436.13 1534.85 2433.72 1549.46 2433.72 1587.07 L 2433.72 1614.29 L 2399.24 1614.29 L 2364.74 1614.29 L 2364.99 1639.15 L 2365.24 1664.03 L 2399.49 1664.28 L 2433.72 1664.55 L 2433.72 1788.65 L 2433.72 1912.76 L 2463.26 1912.76 L 2492.82 1912.76 L 2492.82 1788.64 L 2492.82 1664.52 L 2535.18 1664.52 L 2577.55 1664.52 L 2577.55 1639.4 L 2577.55 1614.29 L 2535.07 1614.29 L 2492.63 1614.29 L 2493.09 1586.46 C 2493.59 1556.37 2494.09 1552.98 2499.34 1543.29 C 2509.09 1525.4 2538.59 1519.84 2574.82 1529.1 L 2577.55 1529.79 L 2577.55 1504.18 L 2577.55 1478.58 L 2573.01 1477.43 C 2558.09 1473.68 2532.03 1472.4 2514.7 1474.58 M 1757.22 1495.85 L 1728.41 1502.28 L 1728.41 1707.52 L 1728.41 1912.76 L 1757.96 1912.76 L 1787.53 1912.76 L 1787.53 1700.97 C 1787.53 1584.48 1787.18 1489.23 1786.78 1489.3 C 1786.38 1489.36 1773.08 1492.3 1757.22 1495.85 M 1348.17 1707.37 L 1348.17 1912.76 L 1379.2 1912.76 L 1410.23 1912.76 L 1410.23 1830.06 L 1410.23 1747.36 L 1486.84 1747.01 C 1560.68 1746.68 1563.74 1746.59 1572.56 1744.58 C 1611.94 1735.57 1639.71 1716.49 1657.45 1686.27 C 1675.32 1655.84 1677.73 1611.99 1663.51 1576.45 C 1646.76 1534.63 1606.49 1507.65 1553.88 1502.99 C 1547.38 1502.42 1502.24 1502 1445.45 1501.99 L 1348.17 1501.98 L 1348.17 1707.37 M 2223.18 1530.96 L 2194.36 1537.94 L 2194.36 1576.11 L 2194.36 1614.29 L 2162.82 1614.29 L 2131.3 1614.29 L 2131.3 1638.91 L 2131.3 1663.54 L 2162.8 1663.54 L 2194.28 1663.54 L 2194.61 1759.34 C 2194.97 1867.3 2194.53 1860.81 2202.74 1877.79 C 2209.55 1891.88 2220.16 1902.09 2234.89 1908.71 C 2260.05 1920.04 2299.16 1920.65 2334.97 1910.27 L 2340.14 1908.77 L 2340.14 1884.06 L 2340.14 1859.33 L 2337.93 1859.83 C 2336.7 1860.12 2332.28 1861.26 2328.07 1862.37 C 2312.49 1866.52 2290.8 1867.35 2278.07 1864.28 C 2268.53 1861.98 2261.72 1857.18 2258.14 1850.2 C 2253.45 1841.11 2253.49 1841.66 2253.45 1749.98 L 2253.45 1663.54 L 2297.28 1663.54 L 2341.11 1663.54 L 2341.11 1638.91 L 2341.11 1614.29 L 2297.28 1614.29 L 2253.45 1614.29 L 2253.45 1569.52 C 2253.45 1544.9 2253.13 1524.58 2252.72 1524.36 C 2252.32 1524.15 2239.01 1527.11 2223.18 1530.96 M 1410.23 1626.1 L 1410.23 1695.15 L 1479.93 1694.81 C 1555.97 1694.41 1553.37 1694.61 1568.7 1688.49 C 1588.34 1680.66 1601.82 1665.97 1607.4 1646.3 C 1610.3 1636.12 1610.55 1617.21 1607.92 1607.39 C 1604.64 1595.1 1600.06 1587.12 1591.22 1578.37 C 1581.88 1569.1 1571.99 1563.61 1557.99 1559.94 C 1549.79 1557.79 1548.29 1557.73 1479.93 1557.41 L 1410.23 1557.05 L 1410.23 1626.1 M 3086.49 1608.5 C 3064.68 1611.3 3040.78 1624.91 3027.07 1642.35 L 3021.32 1649.66 L 3021.03 1631.96 L 3020.78 1614.25 L 2990.99 1614.51 L 2961.22 1614.78 L 2961.22 1763.52 L 2961.22 1912.27 L 2991.01 1912.53 L 3020.82 1912.79 L 3020.82 1812.66 L 3020.82 1712.53 L 3025.36 1703.92 C 3036.32 1683.13 3053.8 1668.37 3074.55 1662.36 C 3081.22 1660.43 3084.66 1660.1 3097.64 1660.1 C 3112.3 1660.1 3120.86 1661.4 3130.45 1665.08 C 3132.01 1665.68 3132.13 1663.73 3132.13 1639.1 L 3132.13 1612.47 L 3127.45 1610.96 C 3116.43 1607.42 3101.76 1606.54 3086.49 1608.5 M 1956.94 1609.03 C 1930.63 1611.49 1899.46 1619.84 1872.22 1631.71 C 1865.46 1634.66 1859.14 1637.33 1858.19 1637.62 C 1857.26 1637.91 1856.46 1638.49 1856.46 1638.9 C 1856.46 1639.62 1876.93 1682.36 1877.61 1683.02 C 1877.77 1683.2 1882.3 1681.37 1887.63 1678.98 C 1909.05 1669.38 1927.1 1663.59 1945.63 1660.42 C 1955.57 1658.71 1960.18 1658.47 1974.67 1658.89 C 1994.22 1659.46 2000.43 1660.7 2012.6 1666.5 C 2026.04 1672.89 2034.54 1682.74 2039.39 1697.52 C 2041.84 1704.93 2042.03 1706.81 2042.41 1728.7 L 2042.86 1751.99 L 2034.06 1748.69 C 1993.63 1733.51 1941.9 1731.75 1904.3 1744.3 C 1861.86 1758.46 1838.95 1790.02 1841.03 1831.48 C 1843.23 1875.77 1874.91 1907.4 1925.91 1916.24 C 1939.38 1918.58 1965.88 1918.6 1978.62 1916.31 C 2000.6 1912.34 2020.04 1903.89 2040.42 1889.45 L 2042.64 1887.89 L 2042.64 1900.32 L 2042.64 1912.76 L 2071.7 1912.76 L 2100.78 1912.76 L 2100.78 1808.09 C 2100.76 1696.32 2100.7 1694.67 2095.84 1678.31 C 2093.66 1671 2087.55 1658.21 2083.18 1651.81 C 2078.95 1645.62 2068.76 1635.46 2061.86 1630.54 C 2049.11 1621.47 2030.76 1614.2 2012.11 1610.82 C 2002.98 1609.18 1967.62 1608.01 1956.94 1609.03 M 2728.76 1609.44 C 2662.14 1618.58 2609.47 1669.92 2598.07 1736.84 C 2595.11 1754.15 2595.8 1780.22 2599.61 1796.87 C 2616.64 1870.81 2682.59 1921.6 2757.32 1918.29 C 2814.55 1915.74 2863.41 1884.24 2889.82 1832.86 C 2908.32 1796.84 2911.32 1753.69 2898.07 1713.85 C 2883.14 1668.89 2845.66 1631.4 2800.63 1616.37 C 2784.3 1610.92 2773.84 1609.24 2753.86 1608.85 C 2743.84 1608.66 2732.55 1608.92 2728.76 1609.44 M 3300.36 1609.83 C 3279.59 1613.24 3254.16 1625.35 3242.49 1637.4 C 3240.63 1639.31 3238.76 1640.88 3238.32 1640.88 C 3237.89 1640.88 3237.53 1634.9 3237.53 1627.58 L 3237.53 1614.29 L 3207.97 1614.29 L 3178.43 1614.29 L 3178.43 1763.52 L 3178.43 1912.76 L 3207.97 1912.76 L 3237.53 1912.76 L 3237.53 1803.98 L 3237.53 1695.22 L 3242.14 1689.47 C 3254.72 1673.79 3271.99 1663.73 3291.7 1660.62 C 3320.95 1656.02 3348.82 1667.74 3361.91 1690.16 C 3366.07 1697.26 3369.95 1708.54 3371.47 1717.93 C 3372.09 1721.82 3372.47 1759.06 3372.47 1818.43 L 3372.47 1912.76 L 3402.03 1912.76 L 3431.59 1912.76 L 3431.59 1815.15 C 3431.59 1749.64 3431.24 1714.5 3430.49 1708.25 C 3429.39 1699.01 3429.41 1698.91 3431.97 1695.05 C 3436.59 1688.06 3447.53 1677.32 3455.05 1672.39 C 3477.38 1657.73 3507.43 1655.66 3531.07 1667.16 C 3546.36 1674.57 3558.24 1690.24 3563.82 1710.33 C 3566.01 1718.18 3566.01 1718.41 3566.32 1815.48 L 3566.63 1912.76 L 3596.16 1912.76 L 3625.7 1912.76 L 3625.39 1809.08 C 3625.07 1707.88 3625.01 1705.2 3622.99 1696.53 C 3615.3 1663.52 3598.26 1639 3572.45 1623.82 C 3553.13 1612.43 3531.11 1607.5 3504.97 1608.69 C 3470.39 1610.25 3440.03 1625.29 3417.72 1651.93 L 3413.01 1657.57 L 3408.63 1651.43 C 3394.59 1631.78 3371.64 1616.82 3346.93 1611.21 C 3335.51 1608.62 3311.97 1607.92 3300.36 1609.83 M 2735.8 1661.55 C 2702.38 1667.61 2673.74 1691.5 2661.3 1723.7 C 2652.7 1745.97 2652.03 1775.75 2659.63 1798 C 2665.53 1815.31 2676.8 1832.44 2689.18 1842.94 C 2738.14 1884.39 2809.84 1868.51 2837.63 1810.03 C 2860.01 1762.9 2845.36 1704.61 2804.11 1676.65 C 2796.78 1671.69 2785.99 1666.66 2776.8 1663.94 C 2769.7 1661.83 2765.66 1661.31 2754.36 1661.02 C 2746.76 1660.84 2738.41 1661.08 2735.8 1661.55 M 1951.04 1777.81 C 1923.02 1781.62 1904.49 1794.78 1899.22 1814.6 C 1894.97 1830.52 1900.92 1848.46 1913.83 1858.65 C 1924.66 1867.22 1937.2 1871.66 1955.8 1873.47 C 1984.64 1876.28 2013.27 1868.23 2036.98 1850.63 L 2042.64 1846.43 L 2042.64 1820.64 L 2042.64 1794.87 L 2035.02 1791.28 C 2024.24 1786.22 2011.49 1782.08 1999.37 1779.71 C 1987.6 1777.39 1961.58 1776.36 1951.04 1777.81" stroke="none" fill="#fcfcfc" fill-rule="evenodd" style=""/>
  <path d="M 3571.83 226.316 L 3525.33 236.506 L 3525.07 295.986 L 3524.81 355.476 L 3516.07 351.246 C 3505.94 346.346 3489.59 340.746 3478.83 338.486 C 3450.98 332.626 3417.2 334.686 3389.59 343.936 C 3334.25 362.486 3294.13 407.816 3281.68 465.916 C 3279.72 475.016 3279.42 479.406 3279.4 498.916 C 3279.39 518.656 3279.66 522.706 3281.66 531.916 C 3285.01 547.326 3289.06 558.796 3296.31 573.416 C 3317.88 616.956 3358.57 648.036 3408.51 659.136 C 3416.87 660.996 3421.52 661.326 3439.83 661.366 C 3463.15 661.426 3473.1 659.986 3489.25 654.226 C 3497.89 651.146 3514.28 643.086 3520.27 638.956 C 3522.7 637.286 3524.94 635.916 3525.26 635.916 C 3525.57 635.916 3525.83 640.866 3525.83 646.916 L 3525.83 657.916 L 3574.33 657.916 L 3622.83 657.916 L 3622.83 436.916 L 3622.83 215.916 L 3620.58 216.026 C 3619.34 216.086 3597.4 220.716 3571.83 226.316 M 2547.83 447.416 L 2547.83 657.916 L 2599.83 657.916 L 2651.83 657.916 L 2651.83 581.406 L 2651.83 504.886 L 2690.92 505.156 L 2730.02 505.416 L 2769.38 581.416 L 2808.75 657.416 L 2866.79 657.676 C 2898.71 657.816 2924.83 657.736 2924.83 657.486 C 2924.83 657.246 2904.1 619.396 2878.76 573.376 C 2853.43 527.356 2832.84 489.596 2833.01 489.446 C 2833.19 489.306 2836.38 487.746 2840.12 485.986 C 2857.17 477.926 2876.77 461.416 2887.75 445.876 C 2897.8 431.626 2905.6 413.616 2909.47 395.686 C 2911.92 384.356 2911.94 357.896 2909.52 345.736 C 2899.29 294.406 2862.86 256.806 2809.45 242.456 C 2788.83 236.916 2788.77 236.916 2663.45 236.916 L 2547.83 236.916 L 2547.83 447.416 M 3767.83 447.416 L 3767.83 657.916 L 3819.83 657.916 L 3871.83 657.916 L 3871.83 575.416 L 3871.83 492.916 L 3957.83 492.916 L 4043.83 492.916 L 4043.83 575.416 L 4043.83 657.916 L 4095.83 657.916 L 4147.83 657.916 L 4147.83 447.416 L 4147.83 236.916 L 4095.83 236.916 L 4043.83 236.916 L 4043.83 317.416 L 4043.83 397.916 L 3957.83 397.916 L 3871.83 397.916 L 3871.83 317.416 L 3871.83 236.916 L 3819.83 236.916 L 3767.83 236.916 L 3767.83 447.416 M 4615.83 247.266 L 4569.33 257.436 L 4569.06 298.176 L 4568.8 338.916 L 4536.81 338.916 L 4504.83 338.916 L 4504.83 379.916 L 4504.83 420.916 L 4536.83 420.916 L 4568.83 420.916 L 4568.83 495.166 C 4568.83 573.666 4569.16 580.896 4573.48 595.916 C 4581.89 625.226 4600.64 644.326 4630.79 654.306 C 4648.56 660.186 4657.26 661.346 4683.33 661.316 C 4707.7 661.296 4721.55 659.786 4743.08 654.826 L 4752.83 652.586 L 4752.83 612.646 C 4752.83 575.016 4752.72 572.746 4751.08 573.386 C 4739.54 577.846 4712.72 580.716 4698.39 579.026 C 4686.41 577.616 4680.1 575.026 4674.92 569.396 C 4667.26 561.096 4667.43 562.856 4667.06 487.666 L 4666.73 420.916 L 4711.28 420.916 L 4755.83 420.916 L 4755.83 379.916 L 4755.83 338.916 L 4711.33 338.916 L 4666.83 338.916 L 4666.83 287.916 L 4666.83 236.916 L 4664.58 237.006 C 4663.34 237.056 4641.4 241.676 4615.83 247.266 M 2651.83 372.926 L 2651.83 420.016 L 2709.08 419.676 C 2771.63 419.306 2769.88 419.466 2782.27 413.186 C 2799.2 404.616 2809.32 384.066 2805.94 365.136 C 2802.79 347.536 2792.26 335.336 2774.55 328.776 C 2768.36 326.476 2768.05 326.466 2710.08 326.146 L 2651.83 325.826 L 2651.83 372.926 M 4325.33 334.046 C 4293.22 335.396 4259.8 342.306 4225.98 354.556 C 4215.54 358.346 4192.94 367.546 4192.06 368.366 C 4191.5 368.886 4226.85 440.406 4227.57 440.226 C 4227.99 440.126 4235.3 437.336 4243.83 434.046 C 4281.59 419.446 4308.54 413.976 4333 415.936 C 4350.91 417.366 4362.15 421.396 4370.79 429.476 C 4379.98 438.076 4383.8 449.526 4383.82 468.486 L 4383.83 477.566 L 4374.07 475.376 C 4355.93 471.296 4341.87 469.696 4319.66 469.166 C 4281.82 468.276 4256.34 472.556 4232.21 483.856 C 4220.68 489.256 4212.46 495.066 4203.83 503.916 C 4193.23 514.766 4187.52 524.996 4183.09 541.036 C 4180.52 550.346 4180.59 578.636 4183.21 588.336 C 4194.83 631.386 4231.58 658.856 4282.85 662.826 C 4295.22 663.786 4318.94 662.576 4330.56 660.406 C 4347.06 657.316 4362.58 651.576 4376.13 643.566 L 4383.83 639.016 L 4383.83 648.466 L 4383.83 657.916 L 4432.37 657.916 L 4480.91 657.916 L 4480.55 546.666 C 4480.2 438.406 4480.13 435.156 4478.1 425.916 C 4472.8 401.706 4464.47 385.606 4449.34 370.326 C 4422.51 343.236 4382.81 331.626 4325.33 334.046 M 3067.83 334.606 C 3051.95 336.306 3029.97 342.486 3015.34 349.356 C 2966.79 372.146 2933.1 416.326 2923.18 470.176 C 2920.81 483.066 2920.74 514.026 2923.06 526.416 C 2932.46 576.636 2961.59 617.026 3006.33 641.836 C 3022.97 651.066 3041.85 657.556 3063.83 661.616 C 3077.31 664.096 3113.91 664.066 3129.33 661.566 C 3150.81 658.066 3166.62 653.086 3184.3 644.236 C 3201.27 635.756 3227.1 618.066 3226.55 615.316 C 3226.43 614.716 3212 601.496 3194.49 585.946 L 3162.65 557.676 L 3158.99 561.156 C 3150.39 569.316 3138.15 575.616 3124.04 579.156 C 3111.12 582.396 3086.64 582.376 3075.39 579.116 C 3054.12 572.956 3034.85 557.816 3025.33 539.776 C 3023.41 536.116 3021.83 532.846 3021.83 532.516 C 3021.83 532.186 3072.74 531.916 3134.96 531.916 L 3248.09 531.916 L 3247.55 508.166 C 3246.99 484.016 3245.76 473.326 3241.71 457.456 C 3224.16 388.696 3172.95 342.706 3105.29 334.956 C 3096.82 333.986 3075.48 333.786 3067.83 334.606 M 3069.33 415.556 C 3060.14 417.496 3047.63 423.646 3041.06 429.446 C 3034.18 435.526 3027.38 445.156 3023.22 454.726 L 3019.88 462.416 L 3085.01 462.666 C 3120.84 462.816 3150.37 462.696 3150.65 462.426 C 3151.65 461.426 3142.85 445.286 3138.11 439.436 C 3121.52 418.936 3095.73 409.976 3069.33 415.556 M 3445.64 418.926 C 3416.35 423.576 3394.26 439.196 3382.69 463.416 C 3376.56 476.246 3375.32 482.286 3375.39 498.916 C 3375.44 512.636 3375.63 513.936 3378.77 523.196 C 3388.24 551.046 3410.78 570.386 3440.84 576.486 C 3452.34 578.816 3475.18 578.046 3485.83 574.966 C 3496.31 571.946 3508.23 565.986 3517.2 559.286 L 3524.83 553.586 L 3524.83 497.916 L 3524.83 442.246 L 3517.58 436.996 C 3501.51 425.366 3483.14 419.126 3462.83 418.416 C 3456.5 418.196 3448.77 418.426 3445.64 418.926 M 4301.66 532.866 C 4288.03 535.366 4279.95 539.036 4273.62 545.586 C 4264.26 555.256 4264.72 570.916 4274.65 580.836 C 4279.94 586.116 4285.4 589.036 4294.83 591.626 C 4303.06 593.886 4329.77 594.126 4340.33 592.026 C 4349.89 590.136 4363.41 585.656 4370.74 581.966 L 4376.83 578.886 L 4376.83 558.946 L 4376.83 538.996 L 4373.08 537.986 C 4371.01 537.436 4363.7 536.036 4356.83 534.886 C 4343.04 532.576 4309.86 531.356 4301.66 532.866" stroke="none" fill="#fcfcfc" fill-rule="evenodd" style="stroke-width: 1;"/>
</svg>